<svg width="124" height="168" viewBox="0 0 124 168" fill="none" xmlns="http://www.w3.org/2000/svg">
<path d="M8.54399 8.75193C8.54399 9.31726 8.39999 9.82393 8.11199 10.2719C7.82399 10.7093 7.43466 11.0559 6.94399 11.3119C6.46399 11.5573 5.93599 11.6799 5.35999 11.6799H-1.12057e-05V0.319931H5.47199C6.00532 0.319931 6.46399 0.463931 6.84799 0.751931C7.24266 1.02926 7.54132 1.39193 7.74399 1.83993C7.95732 2.27726 8.06399 2.73593 8.06399 3.21593C8.06399 3.78126 7.91999 4.30393 7.63199 4.78393C7.34399 5.26393 6.94399 5.62126 6.43199 5.85593C7.08266 6.04793 7.59466 6.40526 7.96799 6.92793C8.35199 7.4506 8.54399 8.0586 8.54399 8.75193ZM7.42399 8.55993C7.42399 8.17593 7.33866 7.82393 7.16799 7.50393C6.99732 7.17326 6.76266 6.9066 6.46399 6.70393C6.17599 6.50126 5.84532 6.39993 5.47199 6.39993H1.11999V10.7039H5.35999C5.74399 10.7039 6.09066 10.6026 6.39999 10.3999C6.70932 10.1973 6.95466 9.93593 7.13599 9.61593C7.32799 9.28526 7.42399 8.93326 7.42399 8.55993ZM1.11999 1.29593V5.48793H5.02399C5.39732 5.48793 5.72799 5.39193 6.01599 5.19993C6.30399 4.99726 6.53332 4.73593 6.70399 4.41593C6.87466 4.09593 6.95999 3.7546 6.95999 3.39193C6.95999 3.00793 6.87999 2.66126 6.71999 2.35193C6.55999 2.03193 6.34132 1.77593 6.06399 1.58393C5.78666 1.39193 5.47199 1.29593 5.11999 1.29593H1.11999ZM14.5922 4.30393C13.8669 4.32526 13.2269 4.52793 12.6722 4.91193C12.1282 5.29593 11.7442 5.82393 11.5202 6.49593V11.6799H10.4322V3.34393H11.4562V5.34393C11.7442 4.75726 12.1229 4.2826 12.5922 3.91993C13.0722 3.55726 13.5789 3.3546 14.1122 3.31193C14.2189 3.30126 14.3096 3.29593 14.3842 3.29593C14.4696 3.29593 14.5389 3.30126 14.5922 3.31193V4.30393ZM19.328 11.8399C18.7307 11.8399 18.176 11.7279 17.664 11.5039C17.1627 11.2693 16.7253 10.9546 16.352 10.5599C15.9893 10.1546 15.7067 9.69593 15.504 9.18393C15.3013 8.66126 15.2 8.11193 15.2 7.53593C15.2 6.9386 15.3013 6.38393 15.504 5.87193C15.7067 5.34926 15.9947 4.8906 16.368 4.49593C16.7413 4.0906 17.1787 3.77593 17.68 3.55193C18.192 3.31726 18.7467 3.19993 19.344 3.19993C19.9413 3.19993 20.4907 3.31726 20.992 3.55193C21.4933 3.77593 21.9307 4.0906 22.304 4.49593C22.6773 4.8906 22.9653 5.34926 23.168 5.87193C23.3707 6.38393 23.472 6.9386 23.472 7.53593C23.472 8.11193 23.3707 8.66126 23.168 9.18393C22.9653 9.69593 22.6773 10.1546 22.304 10.5599C21.9413 10.9546 21.504 11.2693 20.992 11.5039C20.4907 11.7279 19.936 11.8399 19.328 11.8399ZM16.304 7.55193C16.304 8.1706 16.4373 8.73593 16.704 9.24793C16.9813 9.74926 17.3493 10.1493 17.808 10.4479C18.2667 10.7359 18.7733 10.8799 19.328 10.8799C19.8827 10.8799 20.3893 10.7306 20.848 10.4319C21.3067 10.1333 21.6747 9.72793 21.952 9.21593C22.2293 8.69326 22.368 8.12793 22.368 7.51993C22.368 6.90126 22.2293 6.33593 21.952 5.82393C21.6747 5.31193 21.3067 4.9066 20.848 4.60793C20.3893 4.30926 19.8827 4.15993 19.328 4.15993C18.7733 4.15993 18.2667 4.3146 17.808 4.62393C17.36 4.93326 16.9973 5.34393 16.72 5.85593C16.4427 6.35726 16.304 6.9226 16.304 7.55193ZM28.9076 11.8399C28.2996 11.8399 27.7396 11.7279 27.2276 11.5039C26.7263 11.2693 26.2836 10.9493 25.8996 10.5439C25.5263 10.1386 25.2329 9.6746 25.0196 9.15193C24.8169 8.62926 24.7156 8.0746 24.7156 7.48793C24.7156 6.6986 24.8916 5.9786 25.2436 5.32793C25.5956 4.67726 26.0863 4.15993 26.7156 3.77593C27.3449 3.39193 28.0703 3.19993 28.8916 3.19993C29.6703 3.19993 30.3583 3.38126 30.9556 3.74393C31.5529 4.09593 31.9956 4.57593 32.2836 5.18393L31.2276 5.51993C30.9929 5.09326 30.6623 4.7626 30.2356 4.52793C29.8196 4.2826 29.3556 4.15993 28.8436 4.15993C28.2889 4.15993 27.7823 4.30393 27.3236 4.59193C26.8649 4.87993 26.4969 5.2746 26.2196 5.77593C25.9529 6.27726 25.8196 6.84793 25.8196 7.48793C25.8196 8.11726 25.9583 8.68793 26.2356 9.19993C26.5129 9.71193 26.8809 10.1226 27.3396 10.4319C27.7983 10.7306 28.3049 10.8799 28.8596 10.8799C29.2223 10.8799 29.5689 10.8159 29.8996 10.6879C30.2409 10.5599 30.5343 10.3893 30.7796 10.1759C31.0356 9.95193 31.2063 9.71193 31.2916 9.45593L32.3636 9.77593C32.2143 10.1706 31.9636 10.5279 31.6116 10.8479C31.2703 11.1573 30.8649 11.4026 30.3956 11.5839C29.9369 11.7546 29.4409 11.8399 28.9076 11.8399ZM41.0809 11.6799H39.9929V7.02393C39.9929 6.08526 39.8275 5.38126 39.4969 4.91193C39.1662 4.43193 38.6915 4.19193 38.0729 4.19193C37.6675 4.19193 37.2622 4.2986 36.8569 4.51193C36.4622 4.7146 36.1102 4.99726 35.8009 5.35993C35.5022 5.71193 35.2889 6.11726 35.1609 6.57593V11.6799H34.0729V-6.86646e-05H35.1609V5.23193C35.4915 4.61326 35.9502 4.1226 36.5369 3.75993C37.1342 3.3866 37.7689 3.19993 38.4409 3.19993C38.9209 3.19993 39.3262 3.28526 39.6569 3.45593C39.9982 3.6266 40.2702 3.87726 40.4729 4.20793C40.6862 4.52793 40.8409 4.9066 40.9369 5.34393C41.0329 5.7706 41.0809 6.25593 41.0809 6.79993V11.6799ZM47.001 11.8399C46.4037 11.8399 45.849 11.7279 45.337 11.5039C44.825 11.2693 44.3823 10.9546 44.009 10.5599C43.6357 10.1546 43.3423 9.6906 43.129 9.16793C42.9263 8.64526 42.825 8.08526 42.825 7.48793C42.825 6.70926 43.001 5.9946 43.353 5.34393C43.7157 4.69326 44.2117 4.17593 44.841 3.79193C45.4703 3.39726 46.185 3.19993 46.985 3.19993C47.8063 3.19993 48.521 3.39726 49.129 3.79193C49.7477 4.1866 50.233 4.70926 50.585 5.35993C50.937 5.99993 51.113 6.70393 51.113 7.47193C51.113 7.55726 51.113 7.6426 51.113 7.72793C51.113 7.8026 51.1077 7.86126 51.097 7.90393H43.961C44.0143 8.50126 44.1797 9.0346 44.457 9.50393C44.745 9.9626 45.113 10.3306 45.561 10.6079C46.0197 10.8746 46.5157 11.0079 47.049 11.0079C47.593 11.0079 48.105 10.8693 48.585 10.5919C49.0757 10.3146 49.417 9.95193 49.609 9.50393L50.553 9.75993C50.3823 10.1546 50.121 10.5119 49.769 10.8319C49.417 11.1519 49.001 11.4026 48.521 11.5839C48.0517 11.7546 47.545 11.8399 47.001 11.8399ZM43.929 7.11993H50.089C50.0463 6.51193 49.881 5.9786 49.593 5.51993C49.3157 5.06126 48.9477 4.70393 48.489 4.44793C48.041 4.18126 47.545 4.04793 47.001 4.04793C46.457 4.04793 45.961 4.18126 45.513 4.44793C45.065 4.70393 44.697 5.0666 44.409 5.53593C44.1317 5.9946 43.9717 6.5226 43.929 7.11993ZM60.4697 11.8399C59.8724 11.8399 59.3177 11.7279 58.8057 11.5039C58.2937 11.2693 57.8511 10.9546 57.4777 10.5599C57.1044 10.1546 56.8111 9.6906 56.5977 9.16793C56.3951 8.64526 56.2937 8.08526 56.2937 7.48793C56.2937 6.70926 56.4697 5.9946 56.8217 5.34393C57.1844 4.69326 57.6804 4.17593 58.3097 3.79193C58.9391 3.39726 59.6537 3.19993 60.4537 3.19993C61.2751 3.19993 61.9897 3.39726 62.5977 3.79193C63.2164 4.1866 63.7017 4.70926 64.0537 5.35993C64.4057 5.99993 64.5817 6.70393 64.5817 7.47193C64.5817 7.55726 64.5817 7.6426 64.5817 7.72793C64.5817 7.8026 64.5764 7.86126 64.5657 7.90393H57.4297C57.4831 8.50126 57.6484 9.0346 57.9257 9.50393C58.2137 9.9626 58.5817 10.3306 59.0297 10.6079C59.4884 10.8746 59.9844 11.0079 60.5177 11.0079C61.0617 11.0079 61.5737 10.8693 62.0537 10.5919C62.5444 10.3146 62.8857 9.95193 63.0777 9.50393L64.0217 9.75993C63.8511 10.1546 63.5897 10.5119 63.2377 10.8319C62.8857 11.1519 62.4697 11.4026 61.9897 11.5839C61.5204 11.7546 61.0137 11.8399 60.4697 11.8399ZM57.3977 7.11993H63.5577C63.5151 6.51193 63.3497 5.9786 63.0617 5.51993C62.7844 5.06126 62.4164 4.70393 61.9577 4.44793C61.5097 4.18126 61.0137 4.04793 60.4697 4.04793C59.9257 4.04793 59.4297 4.18126 58.9817 4.44793C58.5337 4.70393 58.1657 5.0666 57.8777 5.53593C57.6004 5.9946 57.4404 6.5226 57.3977 7.11993ZM66.2039 3.34393L68.6519 6.60793L68.7799 6.84793L68.9079 6.60793L71.3399 3.34393H72.5719L69.4039 7.53593L72.5719 11.6799H71.3399L68.9079 8.43193L68.7799 8.20793L68.6519 8.43193L66.2199 11.6799H64.9879L68.1399 7.53593L64.9879 3.34393H66.2039ZM77.2514 11.8399C76.6434 11.8399 76.0834 11.7279 75.5714 11.5039C75.07 11.2693 74.6274 10.9493 74.2434 10.5439C73.87 10.1386 73.5767 9.6746 73.3634 9.15193C73.1607 8.62926 73.0594 8.0746 73.0594 7.48793C73.0594 6.6986 73.2354 5.9786 73.5874 5.32793C73.9394 4.67726 74.43 4.15993 75.0594 3.77593C75.6887 3.39193 76.414 3.19993 77.2354 3.19993C78.014 3.19993 78.702 3.38126 79.2994 3.74393C79.8967 4.09593 80.3394 4.57593 80.6274 5.18393L79.5714 5.51993C79.3367 5.09326 79.006 4.7626 78.5794 4.52793C78.1634 4.2826 77.6994 4.15993 77.1874 4.15993C76.6327 4.15993 76.126 4.30393 75.6674 4.59193C75.2087 4.87993 74.8407 5.2746 74.5634 5.77593C74.2967 6.27726 74.1634 6.84793 74.1634 7.48793C74.1634 8.11726 74.302 8.68793 74.5794 9.19993C74.8567 9.71193 75.2247 10.1226 75.6834 10.4319C76.142 10.7306 76.6487 10.8799 77.2034 10.8799C77.566 10.8799 77.9127 10.8159 78.2434 10.6879C78.5847 10.5599 78.878 10.3893 79.1234 10.1759C79.3794 9.95193 79.55 9.71193 79.6354 9.45593L80.7074 9.77593C80.558 10.1706 80.3074 10.5279 79.9554 10.8479C79.614 11.1573 79.2087 11.4026 78.7394 11.5839C78.2807 11.7546 77.7847 11.8399 77.2514 11.8399ZM82.4646 -6.86646e-05H83.5526V9.79193C83.5526 10.2079 83.6273 10.4799 83.7766 10.6079C83.9259 10.7359 84.1073 10.7999 84.3206 10.7999C84.5126 10.7999 84.7046 10.7786 84.8966 10.7359C85.0886 10.6933 85.2539 10.6506 85.3926 10.6079L85.5846 11.4879C85.3819 11.5733 85.1313 11.6426 84.8326 11.6959C84.5446 11.7493 84.2939 11.7759 84.0806 11.7759C83.5899 11.7759 83.1953 11.6319 82.8966 11.3439C82.6086 11.0559 82.4646 10.6613 82.4646 10.1599V-6.86646e-05ZM86.696 8.23993V3.34393H87.784V8.04793C87.784 8.99726 87.944 9.7066 88.264 10.1759C88.5947 10.6453 89.08 10.8799 89.72 10.8799C90.1467 10.8799 90.5573 10.7893 90.952 10.6079C91.3573 10.4159 91.7147 10.1493 92.024 9.80793C92.3333 9.45593 92.568 9.0506 92.728 8.59193V3.34393H93.816V10.3679C93.816 10.5173 93.848 10.6293 93.912 10.7039C93.976 10.7679 94.072 10.8053 94.2 10.8159V11.6799C94.072 11.6906 93.9707 11.6959 93.896 11.6959C93.8213 11.7066 93.752 11.7119 93.688 11.7119C93.4747 11.6906 93.288 11.6053 93.128 11.4559C92.9787 11.3066 92.8987 11.1253 92.888 10.9119L92.856 9.79193C92.4933 10.4319 91.9973 10.9333 91.368 11.2959C90.7493 11.6586 90.0773 11.8399 89.352 11.8399C88.4773 11.8399 87.816 11.5359 87.368 10.9279C86.92 10.3199 86.696 9.42393 86.696 8.23993ZM99.012 11.8399C98.3293 11.8399 97.6947 11.7279 97.108 11.5039C96.5213 11.2799 96.0147 10.9386 95.588 10.4799L96.036 9.71193C96.5053 10.1493 96.9747 10.4693 97.444 10.6719C97.924 10.8639 98.4307 10.9599 98.964 10.9599C99.6147 10.9599 100.143 10.8319 100.548 10.5759C100.953 10.3093 101.156 9.9306 101.156 9.43993C101.156 9.10926 101.055 8.8586 100.852 8.68793C100.66 8.5066 100.377 8.3626 100.004 8.25593C99.6413 8.1386 99.204 8.01593 98.692 7.88793C98.116 7.72793 97.6307 7.5626 97.236 7.39193C96.852 7.2106 96.5587 6.9866 96.356 6.71993C96.164 6.4426 96.068 6.08526 96.068 5.64793C96.068 5.10393 96.2013 4.65593 96.468 4.30393C96.7453 3.94126 97.1187 3.66926 97.588 3.48793C98.068 3.29593 98.6013 3.19993 99.188 3.19993C99.828 3.19993 100.393 3.30126 100.884 3.50393C101.375 3.7066 101.775 3.98926 102.084 4.35193L101.556 5.08793C101.257 4.7466 100.9 4.49593 100.484 4.33593C100.079 4.16526 99.6253 4.07993 99.124 4.07993C98.7827 4.07993 98.4573 4.12793 98.148 4.22393C97.8387 4.30926 97.5827 4.4586 97.38 4.67193C97.188 4.8746 97.092 5.15726 97.092 5.51993C97.092 5.8186 97.1667 6.05326 97.316 6.22393C97.4653 6.38393 97.6893 6.5226 97.988 6.63993C98.2867 6.7466 98.6547 6.86393 99.092 6.99193C99.7213 7.1626 100.271 7.3386 100.74 7.51993C101.209 7.6906 101.572 7.9146 101.828 8.19193C102.084 8.46926 102.212 8.8586 102.212 9.35993C102.212 10.1386 101.919 10.7466 101.332 11.1839C100.745 11.6213 99.972 11.8399 99.012 11.8399ZM104.01 11.6799V3.34393H105.098V11.6799H104.01ZM104.01 1.59993V-6.86646e-05H105.098V1.59993H104.01ZM109.975 11.6799L106.599 3.34393H107.735L110.583 10.5919L113.447 3.34393H114.519L111.143 11.6799H109.975ZM119.297 11.8399C118.699 11.8399 118.145 11.7279 117.633 11.5039C117.131 11.2693 116.694 10.9546 116.321 10.5599C115.958 10.1546 115.675 9.69593 115.473 9.18393C115.27 8.66126 115.169 8.11193 115.169 7.53593C115.169 6.9386 115.27 6.38393 115.473 5.87193C115.675 5.34926 115.963 4.8906 116.337 4.49593C116.71 4.0906 117.147 3.77593 117.649 3.55193C118.161 3.31726 118.715 3.19993 119.313 3.19993C119.91 3.19993 120.459 3.31726 120.961 3.55193C121.462 3.77593 121.899 4.0906 122.273 4.49593C122.646 4.8906 122.934 5.34926 123.137 5.87193C123.339 6.38393 123.441 6.9386 123.441 7.53593C123.441 8.11193 123.339 8.66126 123.137 9.18393C122.934 9.69593 122.646 10.1546 122.273 10.5599C121.91 10.9546 121.473 11.2693 120.961 11.5039C120.459 11.7279 119.905 11.8399 119.297 11.8399ZM116.273 7.55193C116.273 8.1706 116.406 8.73593 116.673 9.24793C116.95 9.74926 117.318 10.1493 117.777 10.4479C118.235 10.7359 118.742 10.8799 119.297 10.8799C119.851 10.8799 120.358 10.7306 120.817 10.4319C121.275 10.1333 121.643 9.72793 121.921 9.21593C122.198 8.69326 122.337 8.12793 122.337 7.51993C122.337 6.90126 122.198 6.33593 121.921 5.82393C121.643 5.31193 121.275 4.9066 120.817 4.60793C120.358 4.30926 119.851 4.15993 119.297 4.15993C118.742 4.15993 118.235 4.3146 117.777 4.62393C117.329 4.93326 116.966 5.34393 116.689 5.85593C116.411 6.35726 116.273 6.9226 116.273 7.55193Z" fill="#F8FBFB"/>
<path d="M118.855 166.949C119.003 167.481 119.555 167.792 120.087 167.643C120.619 167.495 120.93 166.943 120.781 166.411L118.855 166.949ZM15.3179 119.68L14.3368 119.873L15.3179 119.68ZM64.5228 38.7011C63.9823 38.588 63.4523 38.9345 63.3392 39.4751L61.4954 48.2842C61.3823 48.8248 61.7288 49.3547 62.2693 49.4678C62.8099 49.581 63.3398 49.2345 63.453 48.6939L65.0919 40.8636L72.9222 42.5025C73.4628 42.6156 73.9927 42.2691 74.1059 41.7286C74.219 41.188 73.8725 40.6581 73.3319 40.5449L64.5228 38.7011ZM120.781 166.411C117.703 155.381 109.06 144.69 98.0876 135.439C87.0962 126.172 73.6643 118.262 60.8333 112.822C48.0321 107.394 35.7005 104.369 26.9333 105.003C22.5503 105.32 18.894 106.564 16.5735 109.063C14.2153 111.602 13.4213 115.231 14.3368 119.873L16.299 119.486C15.4645 115.254 16.2487 112.352 18.0389 110.424C19.8669 108.456 22.9293 107.298 27.0776 106.998C35.3729 106.398 47.3538 109.279 60.0526 114.663C72.7216 120.035 85.9773 127.844 96.7984 136.968C107.639 146.108 115.933 156.479 118.855 166.949L120.781 166.411ZM14.3368 119.873C15.0397 123.438 17.0396 125.744 19.9543 126.783C22.7903 127.794 26.3589 127.56 30.2026 126.422C37.9077 124.139 47.2044 118.082 55.2169 109.619C71.2381 92.6972 82.5146 65.6828 65.1549 39.1327L63.481 40.2272C80.1213 65.6771 69.4616 91.6645 53.7646 108.244C45.9181 116.531 36.9103 122.349 29.6346 124.504C25.988 125.584 22.8972 125.709 20.6259 124.899C18.4333 124.118 16.878 122.423 16.299 119.486L14.3368 119.873Z" fill="#7D298A"/>
</svg>
