<svg width="254" height="72" viewBox="0 0 254 72" fill="none" xmlns="http://www.w3.org/2000/svg">
<path d="M-1.12057e-05 11.6799V0.319931H1.11999V10.6879H7.67999V11.6799H-1.12057e-05ZM9.10411 11.6799V3.34393H10.1921V11.6799H9.10411ZM9.10411 1.59993V-6.86646e-05H10.1921V1.59993H9.10411ZM15.0685 11.6799L11.6925 3.34393H12.8285L15.6765 10.5919L18.5405 3.34393H19.6125L16.2365 11.6799H15.0685ZM25.2797 4.30393C24.5544 4.32526 23.9144 4.52793 23.3597 4.91193C22.8157 5.29593 22.4317 5.82393 22.2077 6.49593V11.6799H21.1197V3.34393H22.1437V5.34393C22.4317 4.75726 22.8104 4.2826 23.2797 3.91993C23.7597 3.55726 24.2664 3.3546 24.7997 3.31193C24.9064 3.30126 24.9971 3.29593 25.0717 3.29593C25.1571 3.29593 25.2264 3.30126 25.2797 3.31193V4.30393ZM30.0155 11.8399C29.4182 11.8399 28.8635 11.7279 28.3515 11.5039C27.8502 11.2693 27.4128 10.9546 27.0395 10.5599C26.6768 10.1546 26.3942 9.69593 26.1915 9.18393C25.9888 8.66126 25.8875 8.11193 25.8875 7.53593C25.8875 6.9386 25.9888 6.38393 26.1915 5.87193C26.3942 5.34926 26.6822 4.8906 27.0555 4.49593C27.4288 4.0906 27.8662 3.77593 28.3675 3.55193C28.8795 3.31726 29.4342 3.19993 30.0315 3.19993C30.6288 3.19993 31.1782 3.31726 31.6795 3.55193C32.1808 3.77593 32.6182 4.0906 32.9915 4.49593C33.3648 4.8906 33.6528 5.34926 33.8555 5.87193C34.0582 6.38393 34.1595 6.9386 34.1595 7.53593C34.1595 8.11193 34.0582 8.66126 33.8555 9.18393C33.6528 9.69593 33.3648 10.1546 32.9915 10.5599C32.6288 10.9546 32.1915 11.2693 31.6795 11.5039C31.1782 11.7279 30.6235 11.8399 30.0155 11.8399ZM26.9915 7.55193C26.9915 8.1706 27.1248 8.73593 27.3915 9.24793C27.6688 9.74926 28.0368 10.1493 28.4955 10.4479C28.9542 10.7359 29.4608 10.8799 30.0155 10.8799C30.5702 10.8799 31.0768 10.7306 31.5355 10.4319C31.9942 10.1333 32.3622 9.72793 32.6395 9.21593C32.9168 8.69326 33.0555 8.12793 33.0555 7.51993C33.0555 6.90126 32.9168 6.33593 32.6395 5.82393C32.3622 5.31193 31.9942 4.9066 31.5355 4.60793C31.0768 4.30926 30.5702 4.15993 30.0155 4.15993C29.4608 4.15993 28.9542 4.3146 28.4955 4.62393C28.0475 4.93326 27.6848 5.34393 27.4075 5.85593C27.1302 6.35726 26.9915 6.9226 26.9915 7.55193ZM43.6572 11.8399C43.0599 11.8399 42.5052 11.7279 41.9932 11.5039C41.4812 11.2693 41.0386 10.9546 40.6652 10.5599C40.2919 10.1546 39.9986 9.6906 39.7852 9.16793C39.5826 8.64526 39.4812 8.08526 39.4812 7.48793C39.4812 6.70926 39.6572 5.9946 40.0092 5.34393C40.3719 4.69326 40.8679 4.17593 41.4972 3.79193C42.1266 3.39726 42.8412 3.19993 43.6412 3.19993C44.4626 3.19993 45.1772 3.39726 45.7852 3.79193C46.4039 4.1866 46.8892 4.70926 47.2412 5.35993C47.5932 5.99993 47.7692 6.70393 47.7692 7.47193C47.7692 7.55726 47.7692 7.6426 47.7692 7.72793C47.7692 7.8026 47.7639 7.86126 47.7532 7.90393H40.6172C40.6706 8.50126 40.8359 9.0346 41.1132 9.50393C41.4012 9.9626 41.7692 10.3306 42.2172 10.6079C42.6759 10.8746 43.1719 11.0079 43.7052 11.0079C44.2492 11.0079 44.7612 10.8693 45.2412 10.5919C45.7319 10.3146 46.0732 9.95193 46.2652 9.50393L47.2092 9.75993C47.0386 10.1546 46.7772 10.5119 46.4252 10.8319C46.0732 11.1519 45.6572 11.4026 45.1772 11.5839C44.7079 11.7546 44.2012 11.8399 43.6572 11.8399ZM40.5852 7.11993H46.7452C46.7026 6.51193 46.5372 5.9786 46.2492 5.51993C45.9719 5.06126 45.6039 4.70393 45.1452 4.44793C44.6972 4.18126 44.2012 4.04793 43.6572 4.04793C43.1132 4.04793 42.6172 4.18126 42.1692 4.44793C41.7212 4.70393 41.3532 5.0666 41.0652 5.53593C40.7879 5.9946 40.6279 6.5226 40.5852 7.11993ZM61.8479 11.6799H60.7599V7.02393C60.7599 6.05326 60.6052 5.3386 60.2959 4.87993C59.9865 4.42126 59.5279 4.19193 58.9199 4.19193C58.2905 4.19193 57.7252 4.41593 57.2239 4.86393C56.7332 5.31193 56.3865 5.88793 56.1839 6.59193V11.6799H55.0959V7.02393C55.0959 6.0426 54.9465 5.32793 54.6479 4.87993C54.3492 4.42126 53.8905 4.19193 53.2719 4.19193C52.6532 4.19193 52.0932 4.4106 51.5919 4.84793C51.0905 5.28526 50.7385 5.86126 50.5359 6.57593V11.6799H49.4479V3.34393H50.4399V5.23193C50.7919 4.58126 51.2399 4.07993 51.7839 3.72793C52.3385 3.37593 52.9519 3.19993 53.6239 3.19993C54.3172 3.19993 54.8772 3.39726 55.3039 3.79193C55.7305 4.1866 55.9919 4.70393 56.0879 5.34393C56.4719 4.63993 56.9305 4.1066 57.4639 3.74393C58.0079 3.38126 58.6212 3.19993 59.3039 3.19993C59.7732 3.19993 60.1679 3.28526 60.4879 3.45593C60.8185 3.6266 61.0799 3.87193 61.2719 4.19193C61.4745 4.50126 61.6185 4.87993 61.7039 5.32793C61.7999 5.76526 61.8479 6.25593 61.8479 6.79993V11.6799ZM71.8451 11.8399C71.2371 11.8399 70.6771 11.7279 70.1651 11.5039C69.6638 11.2693 69.2211 10.9493 68.8371 10.5439C68.4638 10.1386 68.1704 9.6746 67.9571 9.15193C67.7544 8.62926 67.6531 8.0746 67.6531 7.48793C67.6531 6.6986 67.8291 5.9786 68.1811 5.32793C68.5331 4.67726 69.0238 4.15993 69.6531 3.77593C70.2824 3.39193 71.0078 3.19993 71.8291 3.19993C72.6078 3.19993 73.2958 3.38126 73.8931 3.74393C74.4904 4.09593 74.9331 4.57593 75.2211 5.18393L74.1651 5.51993C73.9304 5.09326 73.5998 4.7626 73.1731 4.52793C72.7571 4.2826 72.2931 4.15993 71.7811 4.15993C71.2264 4.15993 70.7198 4.30393 70.2611 4.59193C69.8024 4.87993 69.4344 5.2746 69.1571 5.77593C68.8904 6.27726 68.7571 6.84793 68.7571 7.48793C68.7571 8.11726 68.8958 8.68793 69.1731 9.19993C69.4504 9.71193 69.8184 10.1226 70.2771 10.4319C70.7358 10.7306 71.2424 10.8799 71.7971 10.8799C72.1598 10.8799 72.5064 10.8159 72.8371 10.6879C73.1784 10.5599 73.4718 10.3893 73.7171 10.1759C73.9731 9.95193 74.1438 9.71193 74.2291 9.45593L75.3011 9.77593C75.1518 10.1706 74.9011 10.5279 74.5491 10.8479C74.2078 11.1573 73.8024 11.4026 73.3331 11.5839C72.8744 11.7546 72.3784 11.8399 71.8451 11.8399ZM76.3384 9.27993C76.3384 8.75726 76.4877 8.30926 76.7864 7.93593C77.085 7.55193 77.4957 7.2586 78.0184 7.05593C78.5517 6.8426 79.165 6.73593 79.8584 6.73593C80.2637 6.73593 80.685 6.76793 81.1224 6.83193C81.5597 6.89593 81.949 6.99193 82.2904 7.11993V6.41593C82.2904 5.71193 82.0824 5.15193 81.6664 4.73593C81.2504 4.31993 80.6744 4.11193 79.9384 4.11193C79.4904 4.11193 79.0477 4.19726 78.6104 4.36793C78.1837 4.52793 77.7357 4.76793 77.2664 5.08793L76.8504 4.31993C77.3944 3.9466 77.9277 3.66926 78.4504 3.48793C78.973 3.29593 79.5064 3.19993 80.0504 3.19993C81.0744 3.19993 81.885 3.49326 82.4824 4.07993C83.0797 4.6666 83.3784 5.47726 83.3784 6.51193V10.3679C83.3784 10.5173 83.4104 10.6293 83.4744 10.7039C83.5384 10.7679 83.6397 10.8053 83.7784 10.8159V11.6799C83.661 11.6906 83.5597 11.7013 83.4744 11.7119C83.389 11.7226 83.325 11.7226 83.2824 11.7119C83.0157 11.7013 82.813 11.6159 82.6744 11.4559C82.5357 11.2959 82.461 11.1253 82.4504 10.9439L82.4344 10.3359C82.061 10.8159 81.5757 11.1893 80.9784 11.4559C80.381 11.7119 79.773 11.8399 79.1544 11.8399C78.621 11.8399 78.1357 11.7279 77.6984 11.5039C77.2717 11.2693 76.9357 10.9599 76.6904 10.5759C76.4557 10.1813 76.3384 9.74926 76.3384 9.27993ZM81.9224 9.91993C82.0397 9.7706 82.1304 9.6266 82.1944 9.48793C82.2584 9.34926 82.2904 9.2266 82.2904 9.11993V7.90393C81.9277 7.76526 81.549 7.6586 81.1544 7.58393C80.7704 7.50926 80.381 7.47193 79.9864 7.47193C79.2077 7.47193 78.5784 7.6266 78.0984 7.93593C77.6184 8.24526 77.3784 8.6666 77.3784 9.19993C77.3784 9.50926 77.4584 9.8026 77.6184 10.0799C77.7784 10.3466 78.013 10.5706 78.3224 10.7519C78.6317 10.9226 78.9944 11.0079 79.4104 11.0079C79.933 11.0079 80.4184 10.9066 80.8664 10.7039C81.325 10.5013 81.677 10.2399 81.9224 9.91993ZM89.9851 11.8399C89.2918 11.8399 88.6678 11.6586 88.1131 11.2959C87.5691 10.9333 87.1371 10.4853 86.8171 9.95193V15.0879H85.7291V3.34393H86.7051V4.95993C87.0358 4.43726 87.4784 4.01593 88.0331 3.69593C88.5878 3.36526 89.1798 3.19993 89.8091 3.19993C90.3851 3.19993 90.9131 3.3226 91.3931 3.56793C91.8731 3.8026 92.2891 4.1226 92.6411 4.52793C92.9931 4.93326 93.2651 5.39726 93.4571 5.91993C93.6598 6.43193 93.7611 6.96526 93.7611 7.51993C93.7611 8.2986 93.6011 9.0186 93.2811 9.67993C92.9718 10.3306 92.5344 10.8533 91.9691 11.2479C91.4038 11.6426 90.7424 11.8399 89.9851 11.8399ZM89.6811 10.8799C90.1398 10.8799 90.5504 10.7893 90.9131 10.6079C91.2758 10.4159 91.5851 10.1599 91.8411 9.83993C92.1078 9.51993 92.3104 9.1626 92.4491 8.76793C92.5878 8.3626 92.6571 7.9466 92.6571 7.51993C92.6571 7.07193 92.5771 6.64526 92.4171 6.23993C92.2678 5.8346 92.0491 5.47726 91.7611 5.16793C91.4731 4.8586 91.1424 4.61326 90.7691 4.43193C90.3958 4.2506 89.9904 4.15993 89.5531 4.15993C89.2758 4.15993 88.9878 4.21326 88.6891 4.31993C88.3904 4.4266 88.1024 4.58126 87.8251 4.78393C87.5584 4.97593 87.3344 5.1946 87.1531 5.43993C86.9718 5.68526 86.8598 5.9466 86.8171 6.22393V8.78393C86.9878 9.1786 87.2171 9.53593 87.5051 9.85593C87.7931 10.1653 88.1238 10.4159 88.4971 10.6079C88.8811 10.7893 89.2758 10.8799 89.6811 10.8799ZM94.9321 9.27993C94.9321 8.75726 95.0814 8.30926 95.3801 7.93593C95.6788 7.55193 96.0894 7.2586 96.6121 7.05593C97.1454 6.8426 97.7588 6.73593 98.4521 6.73593C98.8574 6.73593 99.2788 6.76793 99.7161 6.83193C100.153 6.89593 100.543 6.99193 100.884 7.11993V6.41593C100.884 5.71193 100.676 5.15193 100.26 4.73593C99.8441 4.31993 99.2681 4.11193 98.5321 4.11193C98.0841 4.11193 97.6414 4.19726 97.2041 4.36793C96.7774 4.52793 96.3294 4.76793 95.8601 5.08793L95.4441 4.31993C95.9881 3.9466 96.5214 3.66926 97.0441 3.48793C97.5668 3.29593 98.1001 3.19993 98.6441 3.19993C99.6681 3.19993 100.479 3.49326 101.076 4.07993C101.673 4.6666 101.972 5.47726 101.972 6.51193V10.3679C101.972 10.5173 102.004 10.6293 102.068 10.7039C102.132 10.7679 102.233 10.8053 102.372 10.8159V11.6799C102.255 11.6906 102.153 11.7013 102.068 11.7119C101.983 11.7226 101.919 11.7226 101.876 11.7119C101.609 11.7013 101.407 11.6159 101.268 11.4559C101.129 11.2959 101.055 11.1253 101.044 10.9439L101.028 10.3359C100.655 10.8159 100.169 11.1893 99.5721 11.4559C98.9748 11.7119 98.3668 11.8399 97.7481 11.8399C97.2148 11.8399 96.7294 11.7279 96.2921 11.5039C95.8654 11.2693 95.5294 10.9599 95.2841 10.5759C95.0494 10.1813 94.9321 9.74926 94.9321 9.27993ZM100.516 9.91993C100.633 9.7706 100.724 9.6266 100.788 9.48793C100.852 9.34926 100.884 9.2266 100.884 9.11993V7.90393C100.521 7.76526 100.143 7.6586 99.7481 7.58393C99.3641 7.50926 98.9748 7.47193 98.5801 7.47193C97.8014 7.47193 97.1721 7.6266 96.6921 7.93593C96.2121 8.24526 95.9721 8.6666 95.9721 9.19993C95.9721 9.50926 96.0521 9.8026 96.2121 10.0799C96.3721 10.3466 96.6068 10.5706 96.9161 10.7519C97.2254 10.9226 97.5881 11.0079 98.0041 11.0079C98.5268 11.0079 99.0121 10.9066 99.4601 10.7039C99.9188 10.5013 100.271 10.2399 100.516 9.91993ZM107.841 7.53593C107.841 6.7466 108.001 6.0266 108.321 5.37593C108.652 4.7146 109.105 4.1866 109.681 3.79193C110.257 3.39726 110.913 3.19993 111.649 3.19993C112.342 3.19993 112.961 3.3866 113.505 3.75993C114.06 4.1226 114.492 4.56526 114.801 5.08793V-6.86646e-05H115.889V10.3679C115.889 10.5173 115.921 10.6293 115.985 10.7039C116.049 10.7679 116.145 10.8053 116.273 10.8159V11.6799C116.06 11.7119 115.894 11.7226 115.777 11.7119C115.553 11.7013 115.356 11.6106 115.185 11.4399C115.014 11.2693 114.929 11.0826 114.929 10.8799V10.0639C114.598 10.6079 114.15 11.0399 113.585 11.3599C113.02 11.6799 112.433 11.8399 111.825 11.8399C111.249 11.8399 110.716 11.7226 110.225 11.4879C109.745 11.2533 109.324 10.9333 108.961 10.5279C108.609 10.1226 108.332 9.66393 108.129 9.15193C107.937 8.62926 107.841 8.0906 107.841 7.53593ZM114.801 8.81593V6.23993C114.662 5.85593 114.438 5.50926 114.129 5.19993C113.82 4.87993 113.468 4.62926 113.073 4.44793C112.689 4.25593 112.305 4.15993 111.921 4.15993C111.473 4.15993 111.068 4.25593 110.705 4.44793C110.342 4.62926 110.028 4.87993 109.761 5.19993C109.505 5.51993 109.308 5.8826 109.169 6.28793C109.03 6.69326 108.961 7.10926 108.961 7.53593C108.961 7.98393 109.036 8.4106 109.185 8.81593C109.345 9.22126 109.569 9.58393 109.857 9.90393C110.145 10.2133 110.476 10.4533 110.849 10.6239C111.222 10.7946 111.628 10.8799 112.065 10.8799C112.342 10.8799 112.63 10.8266 112.929 10.7199C113.228 10.6133 113.51 10.4693 113.777 10.2879C114.054 10.0959 114.284 9.87193 114.465 9.61593C114.646 9.35993 114.758 9.09326 114.801 8.81593ZM118.274 8.23993V3.34393H119.362V8.04793C119.362 8.99726 119.522 9.7066 119.842 10.1759C120.173 10.6453 120.658 10.8799 121.298 10.8799C121.725 10.8799 122.135 10.7893 122.53 10.6079C122.935 10.4159 123.293 10.1493 123.602 9.80793C123.911 9.45593 124.146 9.0506 124.306 8.59193V3.34393H125.394V10.3679C125.394 10.5173 125.426 10.6293 125.49 10.7039C125.554 10.7679 125.65 10.8053 125.778 10.8159V11.6799C125.65 11.6906 125.549 11.6959 125.474 11.6959C125.399 11.7066 125.33 11.7119 125.266 11.7119C125.053 11.6906 124.866 11.6053 124.706 11.4559C124.557 11.3066 124.477 11.1253 124.466 10.9119L124.434 9.79193C124.071 10.4319 123.575 10.9333 122.946 11.2959C122.327 11.6586 121.655 11.8399 120.93 11.8399C120.055 11.8399 119.394 11.5359 118.946 10.9279C118.498 10.3199 118.274 9.42393 118.274 8.23993ZM132.014 4.30393C131.289 4.32526 130.649 4.52793 130.094 4.91193C129.55 5.29593 129.166 5.82393 128.942 6.49593V11.6799H127.854V3.34393H128.878V5.34393C129.166 4.75726 129.545 4.2826 130.014 3.91993C130.494 3.55726 131.001 3.3546 131.534 3.31193C131.641 3.30126 131.731 3.29593 131.806 3.29593C131.891 3.29593 131.961 3.30126 132.014 3.31193V4.30393ZM132.76 9.27993C132.76 8.75726 132.91 8.30926 133.208 7.93593C133.507 7.55193 133.918 7.2586 134.44 7.05593C134.974 6.8426 135.587 6.73593 136.28 6.73593C136.686 6.73593 137.107 6.76793 137.544 6.83193C137.982 6.89593 138.371 6.99193 138.712 7.11993V6.41593C138.712 5.71193 138.504 5.15193 138.088 4.73593C137.672 4.31993 137.096 4.11193 136.36 4.11193C135.912 4.11193 135.47 4.19726 135.032 4.36793C134.606 4.52793 134.158 4.76793 133.688 5.08793L133.272 4.31993C133.816 3.9466 134.35 3.66926 134.872 3.48793C135.395 3.29593 135.928 3.19993 136.472 3.19993C137.496 3.19993 138.307 3.49326 138.904 4.07993C139.502 4.6666 139.8 5.47726 139.8 6.51193V10.3679C139.8 10.5173 139.832 10.6293 139.896 10.7039C139.96 10.7679 140.062 10.8053 140.2 10.8159V11.6799C140.083 11.6906 139.982 11.7013 139.896 11.7119C139.811 11.7226 139.747 11.7226 139.704 11.7119C139.438 11.7013 139.235 11.6159 139.096 11.4559C138.958 11.2959 138.883 11.1253 138.872 10.9439L138.856 10.3359C138.483 10.8159 137.998 11.1893 137.4 11.4559C136.803 11.7119 136.195 11.8399 135.576 11.8399C135.043 11.8399 134.558 11.7279 134.12 11.5039C133.694 11.2693 133.358 10.9599 133.112 10.5759C132.878 10.1813 132.76 9.74926 132.76 9.27993ZM138.344 9.91993C138.462 9.7706 138.552 9.6266 138.616 9.48793C138.68 9.34926 138.712 9.2266 138.712 9.11993V7.90393C138.35 7.76526 137.971 7.6586 137.576 7.58393C137.192 7.50926 136.803 7.47193 136.408 7.47193C135.63 7.47193 135 7.6266 134.52 7.93593C134.04 8.24526 133.8 8.6666 133.8 9.19993C133.8 9.50926 133.88 9.8026 134.04 10.0799C134.2 10.3466 134.435 10.5706 134.744 10.7519C135.054 10.9226 135.416 11.0079 135.832 11.0079C136.355 11.0079 136.84 10.9066 137.288 10.7039C137.747 10.5013 138.099 10.2399 138.344 9.91993Z" fill="#F8FBFB"/>
<path d="M251.894 70.6744C252.167 71.1544 252.778 71.3222 253.258 71.0492C253.738 70.7761 253.906 70.1656 253.633 69.6855L251.894 70.6744ZM78.5797 39.2312C78.0558 39.0566 77.4895 39.3398 77.3148 39.8637L74.4688 48.4019C74.2941 48.9258 74.5773 49.4921 75.1012 49.6668C75.6252 49.8414 76.1915 49.5583 76.3661 49.0343L78.8959 41.4448L86.4854 43.9747C87.0094 44.1493 87.5757 43.8662 87.7503 43.3422C87.925 42.8183 87.6418 42.2519 87.1179 42.0773L78.5797 39.2312ZM253.633 69.6855C249.657 62.6953 244.451 58.1379 238.31 55.4059C232.187 52.6824 225.192 51.7986 217.66 52.0477C202.641 52.5444 185.168 57.5714 167.71 61.8968C150.165 66.244 132.604 69.895 117.121 67.8526C101.739 65.8236 88.3775 58.1718 79.1579 39.7327L77.3691 40.6271C86.8995 59.6881 100.851 67.7238 116.859 69.8354C132.766 71.9337 150.674 68.1784 168.191 63.8381C185.797 59.4761 202.98 54.5343 217.726 54.0466C225.077 53.8035 231.742 54.6737 237.497 57.2333C243.232 59.7845 248.12 64.0396 251.894 70.6744L253.633 69.6855Z" fill="#7D298A"/>
</svg>
