<svg width="235" height="191" viewBox="0 0 235 191" fill="none" xmlns="http://www.w3.org/2000/svg">
<path d="M10.0641 187V177.752L5.95205 184.936H5.24805L1.12005 177.752V187H4.98295e-05V175.64H1.15205L5.58405 183.416L10.048 175.64H11.1841V187H10.0641ZM13.0572 184.6C13.0572 184.077 13.2065 183.629 13.5052 183.256C13.8038 182.872 14.2145 182.579 14.7372 182.376C15.2705 182.163 15.8838 182.056 16.5772 182.056C16.9825 182.056 17.4038 182.088 17.8412 182.152C18.2785 182.216 18.6678 182.312 19.0092 182.44V181.736C19.0092 181.032 18.8012 180.472 18.3852 180.056C17.9692 179.64 17.3932 179.432 16.6572 179.432C16.2092 179.432 15.7665 179.517 15.3292 179.688C14.9025 179.848 14.4545 180.088 13.9852 180.408L13.5692 179.64C14.1132 179.267 14.6465 178.989 15.1692 178.808C15.6918 178.616 16.2252 178.52 16.7692 178.52C17.7932 178.52 18.6038 178.813 19.2012 179.4C19.7985 179.987 20.0972 180.797 20.0972 181.832V185.688C20.0972 185.837 20.1292 185.949 20.1932 186.024C20.2572 186.088 20.3585 186.125 20.4972 186.136V187C20.3798 187.011 20.2785 187.021 20.1932 187.032C20.1078 187.043 20.0438 187.043 20.0012 187.032C19.7345 187.021 19.5318 186.936 19.3932 186.776C19.2545 186.616 19.1798 186.445 19.1692 186.264L19.1532 185.656C18.7798 186.136 18.2945 186.509 17.6972 186.776C17.0998 187.032 16.4918 187.16 15.8732 187.16C15.3398 187.16 14.8545 187.048 14.4172 186.824C13.9905 186.589 13.6545 186.28 13.4092 185.896C13.1745 185.501 13.0572 185.069 13.0572 184.6ZM18.6412 185.24C18.7585 185.091 18.8492 184.947 18.9132 184.808C18.9772 184.669 19.0092 184.547 19.0092 184.44V183.224C18.6465 183.085 18.2678 182.979 17.8732 182.904C17.4892 182.829 17.0998 182.792 16.7052 182.792C15.9265 182.792 15.2972 182.947 14.8172 183.256C14.3372 183.565 14.0972 183.987 14.0972 184.52C14.0972 184.829 14.1772 185.123 14.3372 185.4C14.4972 185.667 14.7318 185.891 15.0412 186.072C15.3505 186.243 15.7132 186.328 16.1292 186.328C16.6518 186.328 17.1372 186.227 17.5852 186.024C18.0438 185.821 18.3958 185.56 18.6412 185.24ZM26.6079 179.624C25.8826 179.645 25.2426 179.848 24.6879 180.232C24.1439 180.616 23.7599 181.144 23.5359 181.816V187H22.4479V178.664H23.4719V180.664C23.7599 180.077 24.1386 179.603 24.6079 179.24C25.0879 178.877 25.5946 178.675 26.1279 178.632C26.2346 178.621 26.3253 178.616 26.3999 178.616C26.4853 178.616 26.5546 178.621 26.6079 178.632V179.624ZM31.4077 187.16C30.7997 187.16 30.2397 187.048 29.7277 186.824C29.2263 186.589 28.7837 186.269 28.3997 185.864C28.0263 185.459 27.733 184.995 27.5197 184.472C27.317 183.949 27.2157 183.395 27.2157 182.808C27.2157 182.019 27.3917 181.299 27.7437 180.648C28.0957 179.997 28.5863 179.48 29.2157 179.096C29.845 178.712 30.5703 178.52 31.3917 178.52C32.1703 178.52 32.8583 178.701 33.4557 179.064C34.053 179.416 34.4957 179.896 34.7837 180.504L33.7277 180.84C33.493 180.413 33.1623 180.083 32.7357 179.848C32.3197 179.603 31.8557 179.48 31.3437 179.48C30.789 179.48 30.2823 179.624 29.8237 179.912C29.365 180.2 28.997 180.595 28.7197 181.096C28.453 181.597 28.3197 182.168 28.3197 182.808C28.3197 183.437 28.4583 184.008 28.7357 184.52C29.013 185.032 29.381 185.443 29.8397 185.752C30.2983 186.051 30.805 186.2 31.3597 186.2C31.7223 186.2 32.069 186.136 32.3997 186.008C32.741 185.88 33.0343 185.709 33.2797 185.496C33.5357 185.272 33.7063 185.032 33.7917 184.776L34.8637 185.096C34.7143 185.491 34.4637 185.848 34.1117 186.168C33.7703 186.477 33.365 186.723 32.8957 186.904C32.437 187.075 31.941 187.16 31.4077 187.16ZM35.9009 184.6C35.9009 184.077 36.0503 183.629 36.3489 183.256C36.6476 182.872 37.0583 182.579 37.5809 182.376C38.1143 182.163 38.7276 182.056 39.4209 182.056C39.8263 182.056 40.2476 182.088 40.6849 182.152C41.1223 182.216 41.5116 182.312 41.8529 182.44V181.736C41.8529 181.032 41.6449 180.472 41.2289 180.056C40.8129 179.64 40.2369 179.432 39.5009 179.432C39.0529 179.432 38.6103 179.517 38.1729 179.688C37.7463 179.848 37.2983 180.088 36.8289 180.408L36.4129 179.64C36.9569 179.267 37.4903 178.989 38.0129 178.808C38.5356 178.616 39.0689 178.52 39.6129 178.52C40.6369 178.52 41.4476 178.813 42.0449 179.4C42.6423 179.987 42.9409 180.797 42.9409 181.832V185.688C42.9409 185.837 42.9729 185.949 43.0369 186.024C43.1009 186.088 43.2023 186.125 43.3409 186.136V187C43.2236 187.011 43.1223 187.021 43.0369 187.032C42.9516 187.043 42.8876 187.043 42.8449 187.032C42.5783 187.021 42.3756 186.936 42.2369 186.776C42.0983 186.616 42.0236 186.445 42.0129 186.264L41.9969 185.656C41.6236 186.136 41.1383 186.509 40.5409 186.776C39.9436 187.032 39.3356 187.16 38.7169 187.16C38.1836 187.16 37.6983 187.048 37.2609 186.824C36.8343 186.589 36.4983 186.28 36.2529 185.896C36.0183 185.501 35.9009 185.069 35.9009 184.6ZM41.4849 185.24C41.6023 185.091 41.6929 184.947 41.7569 184.808C41.8209 184.669 41.8529 184.547 41.8529 184.44V183.224C41.4903 183.085 41.1116 182.979 40.7169 182.904C40.3329 182.829 39.9436 182.792 39.5489 182.792C38.7703 182.792 38.1409 182.947 37.6609 183.256C37.1809 183.565 36.9409 183.987 36.9409 184.52C36.9409 184.829 37.0209 185.123 37.1809 185.4C37.3409 185.667 37.5756 185.891 37.8849 186.072C38.1943 186.243 38.5569 186.328 38.9729 186.328C39.4956 186.328 39.9809 186.227 40.4289 186.024C40.8876 185.821 41.2396 185.56 41.4849 185.24ZM53.6258 187.16C52.9325 187.16 52.3085 186.979 51.7538 186.616C51.2098 186.253 50.7778 185.805 50.4578 185.272V190.408H49.3698V178.664H50.3458V180.28C50.6765 179.757 51.1191 179.336 51.6738 179.016C52.2285 178.685 52.8205 178.52 53.4498 178.52C54.0258 178.52 54.5538 178.643 55.0338 178.888C55.5138 179.123 55.9298 179.443 56.2818 179.848C56.6338 180.253 56.9058 180.717 57.0978 181.24C57.3005 181.752 57.4018 182.285 57.4018 182.84C57.4018 183.619 57.2418 184.339 56.9218 185C56.6125 185.651 56.1751 186.173 55.6098 186.568C55.0445 186.963 54.3831 187.16 53.6258 187.16ZM53.3218 186.2C53.7805 186.2 54.1911 186.109 54.5538 185.928C54.9165 185.736 55.2258 185.48 55.4818 185.16C55.7485 184.84 55.9511 184.483 56.0898 184.088C56.2285 183.683 56.2978 183.267 56.2978 182.84C56.2978 182.392 56.2178 181.965 56.0578 181.56C55.9085 181.155 55.6898 180.797 55.4018 180.488C55.1138 180.179 54.7831 179.933 54.4098 179.752C54.0365 179.571 53.6311 179.48 53.1938 179.48C52.9165 179.48 52.6285 179.533 52.3298 179.64C52.0311 179.747 51.7431 179.901 51.4658 180.104C51.1991 180.296 50.9751 180.515 50.7938 180.76C50.6125 181.005 50.5005 181.267 50.4578 181.544V184.104C50.6285 184.499 50.8578 184.856 51.1458 185.176C51.4338 185.485 51.7645 185.736 52.1378 185.928C52.5218 186.109 52.9165 186.2 53.3218 186.2ZM58.5728 184.6C58.5728 184.077 58.7221 183.629 59.0208 183.256C59.3195 182.872 59.7301 182.579 60.2528 182.376C60.7861 182.163 61.3995 182.056 62.0928 182.056C62.4981 182.056 62.9195 182.088 63.3568 182.152C63.7941 182.216 64.1835 182.312 64.5248 182.44V181.736C64.5248 181.032 64.3168 180.472 63.9008 180.056C63.4848 179.64 62.9088 179.432 62.1728 179.432C61.7248 179.432 61.2821 179.517 60.8448 179.688C60.4181 179.848 59.9701 180.088 59.5008 180.408L59.0848 179.64C59.6288 179.267 60.1621 178.989 60.6848 178.808C61.2075 178.616 61.7408 178.52 62.2848 178.52C63.3088 178.52 64.1195 178.813 64.7168 179.4C65.3141 179.987 65.6128 180.797 65.6128 181.832V185.688C65.6128 185.837 65.6448 185.949 65.7088 186.024C65.7728 186.088 65.8741 186.125 66.0128 186.136V187C65.8955 187.011 65.7941 187.021 65.7088 187.032C65.6235 187.043 65.5595 187.043 65.5168 187.032C65.2501 187.021 65.0475 186.936 64.9088 186.776C64.7701 186.616 64.6955 186.445 64.6848 186.264L64.6688 185.656C64.2955 186.136 63.8101 186.509 63.2128 186.776C62.6155 187.032 62.0075 187.16 61.3888 187.16C60.8555 187.16 60.3701 187.048 59.9328 186.824C59.5061 186.589 59.1701 186.28 58.9248 185.896C58.6901 185.501 58.5728 185.069 58.5728 184.6ZM64.1568 185.24C64.2741 185.091 64.3648 184.947 64.4288 184.808C64.4928 184.669 64.5248 184.547 64.5248 184.44V183.224C64.1621 183.085 63.7835 182.979 63.3888 182.904C63.0048 182.829 62.6155 182.792 62.2208 182.792C61.4421 182.792 60.8128 182.947 60.3328 183.256C59.8528 183.565 59.6128 183.987 59.6128 184.52C59.6128 184.829 59.6928 185.123 59.8528 185.4C60.0128 185.667 60.2475 185.891 60.5568 186.072C60.8661 186.243 61.2288 186.328 61.6448 186.328C62.1675 186.328 62.6528 186.227 63.1008 186.024C63.5595 185.821 63.9115 185.56 64.1568 185.24ZM62.6368 177.08L61.9168 176.808L62.8608 175.32H64.0128L62.6368 177.08ZM71.3075 187.112C70.7422 187.112 70.2195 186.995 69.7395 186.76C69.2595 186.525 68.8435 186.211 68.4915 185.816C68.1502 185.411 67.8835 184.952 67.6915 184.44C67.4995 183.928 67.4035 183.4 67.4035 182.856C67.4035 182.269 67.4942 181.72 67.6755 181.208C67.8675 180.685 68.1342 180.221 68.4755 179.816C68.8275 179.411 69.2382 179.096 69.7076 178.872C70.1769 178.637 70.6995 178.52 71.2755 178.52C71.9902 178.52 72.6089 178.701 73.1316 179.064C73.6649 179.427 74.1129 179.875 74.4756 180.408V178.664H75.4516V187.032C75.4516 187.8 75.2649 188.445 74.8916 188.968C74.5289 189.501 74.0329 189.901 73.4036 190.168C72.7849 190.435 72.1076 190.568 71.3716 190.568C70.4222 190.568 69.6542 190.397 69.0675 190.056C68.4809 189.715 68.0009 189.256 67.6275 188.68L68.2995 188.152C68.6302 188.675 69.0675 189.064 69.6115 189.32C70.1662 189.576 70.7529 189.704 71.3716 189.704C71.9156 189.704 72.4116 189.603 72.8595 189.4C73.3182 189.208 73.6809 188.915 73.9476 188.52C74.2249 188.125 74.3636 187.629 74.3636 187.032V185.384C74.0436 185.907 73.6062 186.328 73.0515 186.648C72.4969 186.957 71.9156 187.112 71.3075 187.112ZM71.6115 186.2C71.9422 186.2 72.2569 186.141 72.5556 186.024C72.8649 185.907 73.1476 185.752 73.4036 185.56C73.6596 185.357 73.8729 185.133 74.0436 184.888C74.2142 184.643 74.3209 184.392 74.3636 184.136V181.56C74.2036 181.155 73.9742 180.797 73.6755 180.488C73.3769 180.168 73.0356 179.923 72.6516 179.752C72.2782 179.571 71.8889 179.48 71.4836 179.48C71.0142 179.48 70.5929 179.581 70.2195 179.784C69.8569 179.976 69.5475 180.237 69.2915 180.568C69.0462 180.888 68.8542 181.251 68.7155 181.656C68.5769 182.061 68.5075 182.467 68.5075 182.872C68.5075 183.32 68.5875 183.747 68.7475 184.152C68.9075 184.547 69.1262 184.904 69.4035 185.224C69.6915 185.533 70.0222 185.773 70.3956 185.944C70.7795 186.115 71.1849 186.2 71.6115 186.2ZM77.8542 187V178.664H78.9422V187H77.8542ZM77.8542 176.92V175.32H78.9422V176.92H77.8542ZM88.3465 187H87.2586V182.344C87.2586 181.363 87.1146 180.648 86.8266 180.2C86.5386 179.741 86.0852 179.512 85.4665 179.512C85.0399 179.512 84.6185 179.619 84.2025 179.832C83.7865 180.035 83.4185 180.317 83.0985 180.68C82.7892 181.032 82.5652 181.437 82.4265 181.896V187H81.3385V178.664H82.3305V180.552C82.5545 180.147 82.8479 179.795 83.2105 179.496C83.5732 179.187 83.9839 178.947 84.4426 178.776C84.9012 178.605 85.3759 178.52 85.8665 178.52C86.3252 178.52 86.7146 178.605 87.0346 178.776C87.3546 178.947 87.6106 179.192 87.8026 179.512C87.9946 179.821 88.1332 180.2 88.2185 180.648C88.3039 181.085 88.3465 181.576 88.3465 182.12V187ZM89.9947 184.6C89.9947 184.077 90.144 183.629 90.4427 183.256C90.7413 182.872 91.152 182.579 91.6747 182.376C92.208 182.163 92.8213 182.056 93.5147 182.056C93.92 182.056 94.3413 182.088 94.7787 182.152C95.216 182.216 95.6053 182.312 95.9467 182.44V181.736C95.9467 181.032 95.7387 180.472 95.3227 180.056C94.9067 179.64 94.3307 179.432 93.5947 179.432C93.1467 179.432 92.704 179.517 92.2667 179.688C91.84 179.848 91.392 180.088 90.9227 180.408L90.5067 179.64C91.0507 179.267 91.584 178.989 92.1067 178.808C92.6293 178.616 93.1627 178.52 93.7067 178.52C94.7307 178.52 95.5413 178.813 96.1387 179.4C96.736 179.987 97.0347 180.797 97.0347 181.832V185.688C97.0347 185.837 97.0667 185.949 97.1307 186.024C97.1947 186.088 97.296 186.125 97.4347 186.136V187C97.3173 187.011 97.216 187.021 97.1307 187.032C97.0453 187.043 96.9813 187.043 96.9387 187.032C96.672 187.021 96.4693 186.936 96.3307 186.776C96.192 186.616 96.1173 186.445 96.1067 186.264L96.0907 185.656C95.7173 186.136 95.232 186.509 94.6347 186.776C94.0373 187.032 93.4293 187.16 92.8107 187.16C92.2773 187.16 91.792 187.048 91.3547 186.824C90.928 186.589 90.592 186.28 90.3467 185.896C90.112 185.501 89.9947 185.069 89.9947 184.6ZM95.5787 185.24C95.696 185.091 95.7867 184.947 95.8507 184.808C95.9147 184.669 95.9467 184.547 95.9467 184.44V183.224C95.584 183.085 95.2053 182.979 94.8107 182.904C94.4267 182.829 94.0373 182.792 93.6427 182.792C92.864 182.792 92.2347 182.947 91.7547 183.256C91.2747 183.565 91.0347 183.987 91.0347 184.52C91.0347 184.829 91.1147 185.123 91.2747 185.4C91.4347 185.667 91.6693 185.891 91.9787 186.072C92.288 186.243 92.6507 186.328 93.0667 186.328C93.5893 186.328 94.0747 186.227 94.5227 186.024C94.9813 185.821 95.3333 185.56 95.5787 185.24ZM102.121 187.16C101.439 187.16 100.804 187.048 100.217 186.824C99.6308 186.6 99.1241 186.259 98.6974 185.8L99.1454 185.032C99.6148 185.469 100.084 185.789 100.553 185.992C101.033 186.184 101.54 186.28 102.073 186.28C102.724 186.28 103.252 186.152 103.657 185.896C104.063 185.629 104.265 185.251 104.265 184.76C104.265 184.429 104.164 184.179 103.961 184.008C103.769 183.827 103.487 183.683 103.113 183.576C102.751 183.459 102.313 183.336 101.801 183.208C101.225 183.048 100.74 182.883 100.345 182.712C99.9614 182.531 99.6681 182.307 99.4654 182.04C99.2734 181.763 99.1774 181.405 99.1774 180.968C99.1774 180.424 99.3108 179.976 99.5774 179.624C99.8548 179.261 100.228 178.989 100.697 178.808C101.177 178.616 101.711 178.52 102.297 178.52C102.937 178.52 103.503 178.621 103.993 178.824C104.484 179.027 104.884 179.309 105.193 179.672L104.665 180.408C104.367 180.067 104.009 179.816 103.593 179.656C103.188 179.485 102.735 179.4 102.233 179.4C101.892 179.4 101.567 179.448 101.257 179.544C100.948 179.629 100.692 179.779 100.489 179.992C100.297 180.195 100.201 180.477 100.201 180.84C100.201 181.139 100.276 181.373 100.425 181.544C100.575 181.704 100.799 181.843 101.097 181.96C101.396 182.067 101.764 182.184 102.201 182.312C102.831 182.483 103.38 182.659 103.849 182.84C104.319 183.011 104.681 183.235 104.937 183.512C105.193 183.789 105.321 184.179 105.321 184.68C105.321 185.459 105.028 186.067 104.441 186.504C103.855 186.941 103.081 187.16 102.121 187.16ZM115.198 186.6C115.113 186.632 114.979 186.691 114.798 186.776C114.617 186.861 114.398 186.936 114.142 187C113.886 187.064 113.609 187.096 113.31 187.096C113.001 187.096 112.707 187.037 112.43 186.92C112.163 186.803 111.95 186.627 111.79 186.392C111.63 186.147 111.55 185.848 111.55 185.496V179.528H110.398V178.664H111.55V175.848H112.638V178.664H114.558V179.528H112.638V185.192C112.659 185.491 112.766 185.715 112.958 185.864C113.161 186.013 113.39 186.088 113.646 186.088C113.945 186.088 114.217 186.04 114.462 185.944C114.707 185.837 114.857 185.763 114.91 185.72L115.198 186.6ZM120.017 187.16C119.419 187.16 118.865 187.048 118.353 186.824C117.841 186.589 117.398 186.275 117.025 185.88C116.651 185.475 116.358 185.011 116.145 184.488C115.942 183.965 115.841 183.405 115.841 182.808C115.841 182.029 116.017 181.315 116.369 180.664C116.731 180.013 117.227 179.496 117.857 179.112C118.486 178.717 119.201 178.52 120.001 178.52C120.822 178.52 121.537 178.717 122.145 179.112C122.763 179.507 123.249 180.029 123.601 180.68C123.953 181.32 124.129 182.024 124.129 182.792C124.129 182.877 124.129 182.963 124.129 183.048C124.129 183.123 124.123 183.181 124.113 183.224H116.977C117.03 183.821 117.195 184.355 117.473 184.824C117.761 185.283 118.129 185.651 118.577 185.928C119.035 186.195 119.531 186.328 120.065 186.328C120.609 186.328 121.121 186.189 121.601 185.912C122.091 185.635 122.433 185.272 122.625 184.824L123.569 185.08C123.398 185.475 123.137 185.832 122.785 186.152C122.433 186.472 122.017 186.723 121.537 186.904C121.067 187.075 120.561 187.16 120.017 187.16ZM116.945 182.44H123.105C123.062 181.832 122.897 181.299 122.609 180.84C122.331 180.381 121.963 180.024 121.505 179.768C121.057 179.501 120.561 179.368 120.017 179.368C119.473 179.368 118.977 179.501 118.529 179.768C118.081 180.024 117.713 180.387 117.425 180.856C117.147 181.315 116.987 181.843 116.945 182.44ZM138.207 187H137.119V182.344C137.119 181.373 136.965 180.659 136.655 180.2C136.346 179.741 135.887 179.512 135.279 179.512C134.65 179.512 134.085 179.736 133.583 180.184C133.093 180.632 132.746 181.208 132.543 181.912V187H131.455V182.344C131.455 181.363 131.306 180.648 131.007 180.2C130.709 179.741 130.25 179.512 129.631 179.512C129.013 179.512 128.453 179.731 127.951 180.168C127.45 180.605 127.098 181.181 126.895 181.896V187H125.807V178.664H126.799V180.552C127.151 179.901 127.599 179.4 128.143 179.048C128.698 178.696 129.311 178.52 129.983 178.52C130.677 178.52 131.237 178.717 131.663 179.112C132.09 179.507 132.351 180.024 132.447 180.664C132.831 179.96 133.29 179.427 133.823 179.064C134.367 178.701 134.981 178.52 135.663 178.52C136.133 178.52 136.527 178.605 136.847 178.776C137.178 178.947 137.439 179.192 137.631 179.512C137.834 179.821 137.978 180.2 138.063 180.648C138.159 181.085 138.207 181.576 138.207 182.12V187ZM139.838 184.6C139.838 184.077 139.988 183.629 140.286 183.256C140.585 182.872 140.996 182.579 141.518 182.376C142.052 182.163 142.665 182.056 143.358 182.056C143.764 182.056 144.185 182.088 144.622 182.152C145.06 182.216 145.449 182.312 145.79 182.44V181.736C145.79 181.032 145.582 180.472 145.166 180.056C144.75 179.64 144.174 179.432 143.438 179.432C142.99 179.432 142.548 179.517 142.11 179.688C141.684 179.848 141.236 180.088 140.766 180.408L140.35 179.64C140.894 179.267 141.428 178.989 141.95 178.808C142.473 178.616 143.006 178.52 143.55 178.52C144.574 178.52 145.385 178.813 145.982 179.4C146.58 179.987 146.878 180.797 146.878 181.832V185.688C146.878 185.837 146.91 185.949 146.974 186.024C147.038 186.088 147.14 186.125 147.278 186.136V187C147.161 187.011 147.06 187.021 146.974 187.032C146.889 187.043 146.825 187.043 146.782 187.032C146.516 187.021 146.313 186.936 146.174 186.776C146.036 186.616 145.961 186.445 145.95 186.264L145.934 185.656C145.561 186.136 145.076 186.509 144.478 186.776C143.881 187.032 143.273 187.16 142.654 187.16C142.121 187.16 141.636 187.048 141.198 186.824C140.772 186.589 140.436 186.28 140.19 185.896C139.956 185.501 139.838 185.069 139.838 184.6ZM145.422 185.24C145.54 185.091 145.63 184.947 145.694 184.808C145.758 184.669 145.79 184.547 145.79 184.44V183.224C145.428 183.085 145.049 182.979 144.654 182.904C144.27 182.829 143.881 182.792 143.486 182.792C142.708 182.792 142.078 182.947 141.598 183.256C141.118 183.565 140.878 183.987 140.878 184.52C140.878 184.829 140.958 185.123 141.118 185.4C141.278 185.667 141.513 185.891 141.822 186.072C142.132 186.243 142.494 186.328 142.91 186.328C143.433 186.328 143.918 186.227 144.366 186.024C144.825 185.821 145.177 185.56 145.422 185.24ZM143.902 177.08L143.182 176.808L144.126 175.32H145.278L143.902 177.08ZM153.167 186.6C153.081 186.632 152.948 186.691 152.767 186.776C152.585 186.861 152.367 186.936 152.111 187C151.855 187.064 151.577 187.096 151.279 187.096C150.969 187.096 150.676 187.037 150.399 186.92C150.132 186.803 149.919 186.627 149.759 186.392C149.599 186.147 149.519 185.848 149.519 185.496V179.528H148.367V178.664H149.519V175.848H150.607V178.664H152.527V179.528H150.607V185.192C150.628 185.491 150.735 185.715 150.927 185.864C151.129 186.013 151.359 186.088 151.615 186.088C151.913 186.088 152.185 186.04 152.431 185.944C152.676 185.837 152.825 185.763 152.879 185.72L153.167 186.6ZM154.526 187V178.664H155.614V187H154.526ZM154.526 176.92V175.32H155.614V176.92H154.526ZM161.626 187.16C161.018 187.16 160.458 187.048 159.946 186.824C159.445 186.589 159.002 186.269 158.618 185.864C158.245 185.459 157.952 184.995 157.738 184.472C157.536 183.949 157.434 183.395 157.434 182.808C157.434 182.019 157.61 181.299 157.962 180.648C158.314 179.997 158.805 179.48 159.434 179.096C160.064 178.712 160.789 178.52 161.61 178.52C162.389 178.52 163.077 178.701 163.674 179.064C164.272 179.416 164.714 179.896 165.002 180.504L163.946 180.84C163.712 180.413 163.381 180.083 162.954 179.848C162.538 179.603 162.074 179.48 161.562 179.48C161.008 179.48 160.501 179.624 160.042 179.912C159.584 180.2 159.216 180.595 158.938 181.096C158.672 181.597 158.538 182.168 158.538 182.808C158.538 183.437 158.677 184.008 158.954 184.52C159.232 185.032 159.6 185.443 160.058 185.752C160.517 186.051 161.024 186.2 161.578 186.2C161.941 186.2 162.288 186.136 162.618 186.008C162.96 185.88 163.253 185.709 163.498 185.496C163.754 185.272 163.925 185.032 164.01 184.776L165.082 185.096C164.933 185.491 164.682 185.848 164.33 186.168C163.989 186.477 163.584 186.723 163.114 186.904C162.656 187.075 162.16 187.16 161.626 187.16ZM170.266 187.16C169.668 187.16 169.114 187.048 168.602 186.824C168.1 186.589 167.663 186.275 167.29 185.88C166.927 185.475 166.644 185.016 166.442 184.504C166.239 183.981 166.138 183.432 166.138 182.856C166.138 182.259 166.239 181.704 166.442 181.192C166.644 180.669 166.932 180.211 167.306 179.816C167.679 179.411 168.116 179.096 168.618 178.872C169.13 178.637 169.684 178.52 170.282 178.52C170.879 178.52 171.428 178.637 171.93 178.872C172.431 179.096 172.868 179.411 173.242 179.816C173.615 180.211 173.903 180.669 174.106 181.192C174.308 181.704 174.41 182.259 174.41 182.856C174.41 183.432 174.308 183.981 174.106 184.504C173.903 185.016 173.615 185.475 173.242 185.88C172.879 186.275 172.442 186.589 171.93 186.824C171.428 187.048 170.874 187.16 170.266 187.16ZM167.242 182.872C167.242 183.491 167.375 184.056 167.642 184.568C167.919 185.069 168.287 185.469 168.746 185.768C169.204 186.056 169.711 186.2 170.266 186.2C170.82 186.2 171.327 186.051 171.786 185.752C172.244 185.453 172.612 185.048 172.89 184.536C173.167 184.013 173.306 183.448 173.306 182.84C173.306 182.221 173.167 181.656 172.89 181.144C172.612 180.632 172.244 180.227 171.786 179.928C171.327 179.629 170.82 179.48 170.266 179.48C169.711 179.48 169.204 179.635 168.746 179.944C168.298 180.253 167.935 180.664 167.658 181.176C167.38 181.677 167.242 182.243 167.242 182.872Z" fill="#F8FBFB"/>
<path d="M205.353 0.16496C204.892 -0.138901 204.271 -0.0113689 203.968 0.449811C203.664 0.910991 203.791 1.53118 204.252 1.83504L205.353 0.16496ZM87.1578 153.264C87.5799 153.62 88.2108 153.567 88.567 153.145L94.3714 146.267C94.7276 145.845 94.6742 145.214 94.2521 144.858C93.8301 144.501 93.1991 144.555 92.843 144.977L87.6834 151.091L81.5696 145.931C81.1475 145.575 80.5166 145.629 80.1604 146.051C79.8042 146.473 79.8576 147.104 80.2797 147.46L87.1578 153.264ZM204.252 1.83504C217.594 10.6258 225.516 18.0242 229.309 24.3871C231.196 27.5522 232.04 30.4257 232.053 33.0675C232.066 35.7032 231.253 38.1868 229.699 40.5802C226.558 45.4139 220.434 49.8152 212.231 54.1143C204.057 58.3985 193.972 62.5054 183.06 66.8201C161.292 75.4276 136.256 84.847 117.187 98.0529C98.0866 111.28 84.7635 128.454 86.8063 152.584L88.7992 152.416C86.8419 129.296 99.5189 112.72 118.325 99.6971C137.161 86.653 161.939 77.3224 183.795 68.6799C194.696 64.3696 204.877 60.2265 213.159 55.8857C221.414 51.5598 227.938 46.9611 231.376 41.6698C233.11 39.0007 234.068 36.1405 234.053 33.0575C234.037 29.9806 233.052 26.7603 231.027 23.3629C226.996 16.6008 218.761 8.99923 205.353 0.16496L204.252 1.83504Z" fill="#7D298A"/>
</svg>
