<svg width="31" height="52" viewBox="0 0 31 52" fill="none" xmlns="http://www.w3.org/2000/svg">
<path d="M14.1214 0.733958C14.5303 0.349802 15.0486 0.102217 15.6046 0.0254982C16.1605 -0.0512211 16.7265 0.0467203 17.2242 0.305757C17.7298 0.576008 18.1427 0.990556 18.4086 1.49928L20.057 4.87236C20.4771 5.71686 21.0878 6.45216 21.8411 7.02019C22.5943 7.58823 23.4694 7.97345 24.3973 8.14543L28.1436 8.80036C28.7004 8.9176 29.2063 9.20648 29.59 9.6263C29.9737 10.0461 30.216 10.5757 30.2826 11.1404C30.3492 11.7052 30.2368 12.2766 29.9613 12.7742C29.6857 13.2718 29.2609 13.6704 28.7467 13.914L25.3665 15.5653C24.5209 15.9849 23.7845 16.5953 23.2155 17.3483C22.6465 18.1013 22.2606 18.9762 22.0881 19.9038L21.4259 23.641C21.3124 24.1938 21.0293 24.6976 20.616 25.0822C20.2027 25.4668 19.6798 25.7131 19.1199 25.7869C18.5601 25.8606 17.9912 25.7582 17.4924 25.4938C16.9936 25.2294 16.5897 24.8161 16.3368 24.3116L14.6529 20.8726C14.2362 20.052 13.6386 19.3366 12.9052 18.7803C12.1717 18.2239 11.3215 17.8412 10.4185 17.6608L6.6758 17.0132C6.12282 16.8995 5.61903 16.6164 5.23438 16.2035C4.84973 15.7905 4.6033 15.268 4.52931 14.7087C4.45531 14.1493 4.55742 13.5807 4.82147 13.0819C5.08551 12.5831 5.49838 12.1788 6.00276 11.9252L9.38148 10.282C10.2315 9.86104 10.9708 9.24658 11.54 8.48807C12.1091 7.72955 12.4922 6.84816 12.6585 5.91479L13.3196 2.16987C13.4313 1.61858 13.7128 1.11693 14.1214 0.733958Z" fill="#9547A5"/>
<path d="M4.82824 38.8641C5.03358 38.6712 5.29386 38.5469 5.57301 38.5083C5.85216 38.4698 6.13637 38.519 6.38628 38.6491C6.64016 38.7848 6.84751 38.9929 6.98102 39.2484L7.80872 40.9421C8.01963 41.3661 8.32631 41.7354 8.70454 42.0206C9.08277 42.3058 9.52219 42.4993 9.9881 42.5856L11.8693 42.9145C12.1488 42.9733 12.4028 43.1184 12.5955 43.3292C12.7882 43.54 12.9098 43.8059 12.9433 44.0895C12.9767 44.3731 12.9203 44.66 12.7819 44.9098C12.6436 45.1597 12.4303 45.3599 12.1721 45.4822L10.4748 46.3113C10.0502 46.5221 9.68041 46.8286 9.39471 47.2067C9.10901 47.5848 8.9152 48.0241 8.8286 48.4899L8.49607 50.3664C8.43908 50.644 8.29692 50.897 8.0894 51.0901C7.88187 51.2832 7.61929 51.4069 7.33818 51.4439C7.05707 51.481 6.77141 51.4295 6.52094 51.2968C6.27048 51.164 6.06766 50.9565 5.9407 50.7031L5.09516 48.9763C4.88591 48.5643 4.58585 48.205 4.21755 47.9257C3.84926 47.6463 3.42233 47.4542 2.96892 47.3636L1.0896 47.0384C0.811927 46.9813 0.558959 46.8392 0.365814 46.6318C0.172669 46.4244 0.0489288 46.1621 0.0117741 45.8812C-0.0253807 45.6003 0.025893 45.3148 0.158477 45.0644C0.29106 44.8139 0.498376 44.6109 0.75164 44.4835L2.4482 43.6585C2.87502 43.4471 3.24625 43.1385 3.53204 42.7577C3.81783 42.3768 4.0102 41.9342 4.09367 41.4655L4.42565 39.5851C4.48173 39.3083 4.62309 39.0564 4.82824 38.8641Z" fill="#9547A5"/>
</svg>
