<svg width="56" height="24" viewBox="0 0 56 24" fill="none" xmlns="http://www.w3.org/2000/svg">
<path d="M44.0921 0.267591C44.5377 0.0384505 45.0437 -0.0465077 45.5399 0.0244878C46.0361 0.0954814 46.4979 0.318914 46.8614 0.663839C47.229 1.02033 47.4815 1.4779 47.5845 1.98013L48.1693 5.2819C48.322 6.11034 48.6654 6.89199 49.1722 7.56512C49.6791 8.23825 50.3356 8.78442 51.0899 9.16049L54.1451 10.6451C54.5942 10.8828 54.9574 11.2554 55.1835 11.7103C55.4096 12.1652 55.4872 12.6795 55.4054 13.1807C55.3235 13.682 55.0864 14.1449 54.7273 14.5043C54.3682 14.8637 53.9054 15.1013 53.4039 15.1839L50.0953 15.7694C49.266 15.9215 48.4835 16.2643 47.8097 16.7707C47.1358 17.2771 46.589 17.9332 46.2126 18.6872L44.724 21.7327C44.4904 22.1794 44.1234 22.5422 43.6739 22.7707C43.2243 22.9991 42.7147 23.0818 42.2159 23.0073C41.7171 22.9329 41.2539 22.7049 40.8908 22.355C40.5276 22.0052 40.2826 21.551 40.1897 21.0556L39.5906 17.6885C39.4349 16.8814 39.0979 16.1201 38.6052 15.4619C38.1124 14.8037 37.4767 14.2657 36.7458 13.8886L33.692 12.4112C33.2452 12.1774 32.8824 11.8104 32.6538 11.3611C32.4252 10.9118 32.3423 10.4026 32.4164 9.90416C32.4906 9.40569 32.7183 8.94269 33.0678 8.57945C33.4172 8.21622 33.8712 7.97075 34.3667 7.87715L37.6721 7.29819C38.5055 7.14602 39.2915 6.80049 39.9669 6.28938C40.6422 5.77828 41.1881 5.11588 41.5607 4.35545L43.0502 1.30301C43.2818 0.857195 43.647 0.495815 44.0921 0.267591Z" fill="#9547A5"/>
<path d="M5.66908 12.7384C5.88498 12.6274 6.1301 12.5862 6.37047 12.6206C6.61084 12.655 6.83458 12.7632 7.01069 12.9303C7.18875 13.103 7.31105 13.3247 7.36097 13.568L7.64428 15.1675C7.71826 15.5688 7.88459 15.9475 8.13013 16.2736C8.37568 16.5997 8.69371 16.8643 9.05911 17.0465L10.5392 17.7657C10.7568 17.8808 10.9327 18.0613 11.0423 18.2817C11.1518 18.5021 11.1894 18.7512 11.1497 18.994C11.1101 19.2369 10.9952 19.4611 10.8212 19.6352C10.6473 19.8093 10.4231 19.9245 10.1801 19.9645L8.57732 20.2481C8.17557 20.3218 7.79649 20.4879 7.47004 20.7332C7.14359 20.9785 6.87872 21.2963 6.69636 21.6616L5.97521 23.137C5.86207 23.3534 5.68425 23.5291 5.46649 23.6398C5.24872 23.7505 5.00184 23.7906 4.7602 23.7545C4.51856 23.7184 4.29416 23.6079 4.11824 23.4385C3.94231 23.269 3.82359 23.049 3.77861 22.809L3.48838 21.1778C3.41293 20.7868 3.2497 20.418 3.01099 20.0991C2.77228 19.7803 2.46431 19.5197 2.11025 19.3369L0.630828 18.6212C0.414402 18.508 0.238621 18.3302 0.127891 18.1125C0.0171605 17.8949 -0.0230258 17.6482 0.0129115 17.4067C0.0488488 17.1652 0.159126 16.941 0.328434 16.765C0.497742 16.589 0.717679 16.4701 0.957711 16.4248L2.55895 16.1443C2.96269 16.0706 3.34347 15.9032 3.67065 15.6556C3.99784 15.408 4.2623 15.0871 4.44276 14.7187L5.16437 13.24C5.27656 13.024 5.45348 12.8489 5.66908 12.7384Z" fill="#9547A5"/>
</svg>
